<?xml version="1.0" encoding="UTF-8" standalone="no"?>
<!-- Created with Inkscape (http://www.inkscape.org/) -->

<svg
   xmlns:dc="http://purl.org/dc/elements/1.1/"
   xmlns:cc="http://creativecommons.org/ns#"
   xmlns:rdf="http://www.w3.org/1999/02/22-rdf-syntax-ns#"
   xmlns:svg="http://www.w3.org/2000/svg"
   xmlns="http://www.w3.org/2000/svg"
   xmlns:sodipodi="http://sodipodi.sourceforge.net/DTD/sodipodi-0.dtd"
   xmlns:inkscape="http://www.inkscape.org/namespaces/inkscape"
   width="744.09448819"
   height="1052.3622047"
   id="svg2"
   version="1.1"
   inkscape:version="0.47pre4 r22446"
   sodipodi:docname="bugbot2.svg"
   inkscape:export-filename="/home/dpalm/src/bugbots/trunk/Evolution/BugBots Evolution/res/bugbot32.png"
   inkscape:export-xdpi="19.491053"
   inkscape:export-ydpi="19.491053">
  <defs
     id="defs4">
    <inkscape:perspective
       sodipodi:type="inkscape:persp3d"
       inkscape:vp_x="0 : 526.18109 : 1"
       inkscape:vp_y="0 : 1000 : 0"
       inkscape:vp_z="744.09448 : 526.18109 : 1"
       inkscape:persp3d-origin="372.04724 : 350.78739 : 1"
       id="perspective10" />
    <inkscape:perspective
       id="perspective3617"
       inkscape:persp3d-origin="0.5 : 0.33333333 : 1"
       inkscape:vp_z="1 : 0.5 : 1"
       inkscape:vp_y="0 : 1000 : 0"
       inkscape:vp_x="0 : 0.5 : 1"
       sodipodi:type="inkscape:persp3d" />
    <inkscape:perspective
       id="perspective3617-4"
       inkscape:persp3d-origin="0.5 : 0.33333333 : 1"
       inkscape:vp_z="1 : 0.5 : 1"
       inkscape:vp_y="0 : 1000 : 0"
       inkscape:vp_x="0 : 0.5 : 1"
       sodipodi:type="inkscape:persp3d" />
    <inkscape:perspective
       id="perspective3617-7"
       inkscape:persp3d-origin="0.5 : 0.33333333 : 1"
       inkscape:vp_z="1 : 0.5 : 1"
       inkscape:vp_y="0 : 1000 : 0"
       inkscape:vp_x="0 : 0.5 : 1"
       sodipodi:type="inkscape:persp3d" />
  </defs>
  <sodipodi:namedview
     id="base"
     pagecolor="#ffffff"
     bordercolor="#666666"
     borderopacity="1.0"
     inkscape:pageopacity="0.0"
     inkscape:pageshadow="2"
     inkscape:zoom="1.4"
     inkscape:cx="321.43981"
     inkscape:cy="386.60364"
     inkscape:document-units="px"
     inkscape:current-layer="layer1"
     showgrid="false"
     inkscape:window-width="1366"
     inkscape:window-height="718"
     inkscape:window-x="0"
     inkscape:window-y="1"
     inkscape:window-maximized="1" />
  <metadata
     id="metadata7">
    <rdf:RDF>
      <cc:Work
         rdf:about="">
        <dc:format>image/svg+xml</dc:format>
        <dc:type
           rdf:resource="http://purl.org/dc/dcmitype/StillImage" />
        <dc:title></dc:title>
      </cc:Work>
    </rdf:RDF>
  </metadata>
  <g
     inkscape:label="Layer 1"
     inkscape:groupmode="layer"
     id="layer1">
    <g
       id="g2836"
       inkscape:export-filename="/home/dpalm/src/bugbots/trunk/Evolution/BugBots Evolution/res/icon/bb_red.png"
       inkscape:export-xdpi="19.491053"
       inkscape:export-ydpi="19.491053">
      <path
         id="path2818"
         d="m 281.25278,610.80247 c -3.74646,0 -7.41833,0.19531 -10.9922,0.51587 l -7.45314,23.76432 -7.68751,-21.39133 c -23.07649,5.34066 -39.211,17.52653 -39.211,31.70869 0,14.77293 17.4925,27.36813 42.11725,32.32772 l 5.3672,-14.89138 5.20313,16.50777 c 4.09511,0.42563 8.3253,0.65343 12.65627,0.65343 9.64748,0 18.80408,-1.10938 27.04692,-3.0952 3.9399,13.31053 13.73131,22.73258 25.19535,22.73258 14.9413,0 27.04692,-16.01337 27.04692,-35.76685 0,-17.49364 -9.50357,-32.0453 -22.05472,-35.14781 -11.1331,-10.66333 -32.58492,-17.91781 -57.23447,-17.91781 z"
         style="fill:#ff0000;stroke:#000000;stroke-width:3.90659236999999981;stroke-miterlimit:4;stroke-opacity:1;stroke-dasharray:none" />
      <path
         transform="matrix(0.75000114,0,0,1.1005184,215.89554,-13.579594)"
         d="m 163.57143,557.7193 a 16.071428,29.642857 0 1 1 -32.14286,0 16.071428,29.642857 0 1 1 32.14286,0 z"
         sodipodi:ry="29.642857"
         sodipodi:rx="16.071428"
         sodipodi:cy="557.7193"
         sodipodi:cx="147.5"
         id="path3592"
         style="fill:#ffffff;stroke:#000000;stroke-width:4.30000019;stroke-miterlimit:4;stroke-opacity:1;stroke-dasharray:none"
         sodipodi:type="arc" />
      <path
         transform="matrix(0.75000114,0,0,1.1005184,215.89554,-13.579594)"
         d="m 185.00001,557.36218 a 10.714286,27.857143 0 1 1 -21.42858,0 10.714286,27.857143 0 1 1 21.42858,0 z"
         sodipodi:ry="27.857143"
         sodipodi:rx="10.714286"
         sodipodi:cy="557.36218"
         sodipodi:cx="174.28572"
         id="path3594"
         style="fill:#ffffff;stroke:#000000;stroke-width:4.30000019;stroke-miterlimit:4;stroke-opacity:1;stroke-dasharray:none"
         sodipodi:type="arc" />
      <path
         transform="matrix(0.75000114,0,0,1.1005184,215.89554,-13.579594)"
         d="m 158.57142,555.93359 a 2.8571429,7.1428571 0 1 1 -5.71428,0 2.8571429,7.1428571 0 1 1 5.71428,0 z"
         sodipodi:ry="7.1428571"
         sodipodi:rx="2.8571429"
         sodipodi:cy="555.93359"
         sodipodi:cx="155.71428"
         id="path3596"
         style="fill:#000000;stroke:#000000;stroke-width:4.30000019;stroke-miterlimit:4;stroke-opacity:1;stroke-dasharray:none"
         sodipodi:type="arc" />
      <path
         transform="matrix(0.75000114,0,0,1.1005184,215.89554,-13.579594)"
         d="m 179.99999,557.00507 a 1.7857143,6.0714288 0 1 1 -3.57143,0 1.7857143,6.0714288 0 1 1 3.57143,0 z"
         sodipodi:ry="6.0714288"
         sodipodi:rx="1.7857143"
         sodipodi:cy="557.00507"
         sodipodi:cx="178.21428"
         id="path3598"
         style="fill:#000000;stroke:#000000;stroke-width:4.30000019;stroke-miterlimit:4;stroke-opacity:1;stroke-dasharray:none"
         sodipodi:type="arc" />
      <path
         transform="matrix(0.75000114,0,0,1.1005184,204.64552,-12.793509)"
         d="m 47.857141,639.50507 a 8.5714283,17.857143 0 1 1 -17.142856,0 8.5714283,17.857143 0 1 1 17.142856,0 z"
         sodipodi:ry="17.857143"
         sodipodi:rx="8.5714283"
         sodipodi:cy="639.50507"
         sodipodi:cx="39.285713"
         id="path3607"
         style="fill:#ff0000;stroke:#000000;stroke-width:4.30000019000000044;stroke-miterlimit:4;stroke-opacity:1;stroke-dasharray:none"
         sodipodi:type="arc" />
      <path
         d="m 47.857141,639.50507 a 8.5714283,17.857143 0 1 1 -17.142856,0 8.5714283,17.857143 0 1 1 17.142856,0 z"
         sodipodi:ry="17.857143"
         sodipodi:rx="8.5714283"
         sodipodi:cy="639.50507"
         sodipodi:cx="39.285713"
         id="path3607-7"
         style="fill:#ff0000;stroke:#000000;stroke-width:4.30000019000000044;stroke-miterlimit:4;stroke-opacity:1;stroke-dasharray:none"
         sodipodi:type="arc"
         transform="matrix(0.75000114,0,0,1.1005184,221.25269,-12.793539)" />
      <path
         d="m 47.857141,639.50507 a 8.5714283,17.857143 0 1 1 -17.142856,0 8.5714283,17.857143 0 1 1 17.142856,0 z"
         sodipodi:ry="17.857143"
         sodipodi:rx="8.5714283"
         sodipodi:cy="639.50507"
         sodipodi:cx="39.285713"
         id="path3607-3"
         style="fill:#ff0000;stroke:#000000;stroke-width:4.30000019000000044;stroke-miterlimit:4;stroke-opacity:1;stroke-dasharray:none"
         sodipodi:type="arc"
         transform="matrix(0.75000114,0,0,1.1005184,249.10988,-12.793539)" />
      <path
         d="m 47.857141,639.50507 a 8.5714283,17.857143 0 1 1 -17.142856,0 8.5714283,17.857143 0 1 1 17.142856,0 z"
         sodipodi:ry="17.857143"
         sodipodi:rx="8.5714283"
         sodipodi:cy="639.50507"
         sodipodi:cx="39.285713"
         id="path3607-5"
         style="fill:#ff0000;stroke:#000000;stroke-width:4.30000019000000044;stroke-miterlimit:4;stroke-opacity:1;stroke-dasharray:none"
         sodipodi:type="arc"
         transform="matrix(0.75000114,0,0,1.1005184,266.25276,-12.007454)" />
      <path
         transform="matrix(0.75000114,0,0,1.1005184,192.85979,-92.974136)"
         d="m 213.57143,702.7193 a 17.5,6.0714288 0 1 1 -35,0 17.5,6.0714288 0 1 1 35,0 z"
         sodipodi:ry="6.0714288"
         sodipodi:rx="17.5"
         sodipodi:cy="702.7193"
         sodipodi:cx="196.07143"
         id="path3659"
         style="fill:#800000;stroke:#000000;stroke-width:4.30000019000000044;stroke-miterlimit:4;stroke-opacity:1;stroke-dasharray:none"
         sodipodi:type="arc" />
    </g>
  </g>
</svg>
